<mxfile host="app.diagrams.net" agent="Mozilla/5.0 (Windows NT 10.0; Win64; x64) AppleWebKit/537.36 (KHTML, like Gecko) Chrome/131.0.0.0 Safari/537.36" version="24.8.8">
  <diagram name="Side-1" id="4Nwz1Ar8K0lwVNZl0ucg">
    <mxGraphModel dx="206" dy="112" grid="1" gridSize="5" guides="1" tooltips="1" connect="1" arrows="1" fold="1" page="1" pageScale="1" pageWidth="827" pageHeight="1169" math="0" shadow="0">
      <root>
        <mxCell id="0" />
        <mxCell id="1" parent="0" />
        <mxCell id="of4eQQwGTwK3qrUm9Hr5-3" style="edgeStyle=orthogonalEdgeStyle;rounded=0;orthogonalLoop=1;jettySize=auto;html=1;" edge="1" parent="1" source="of4eQQwGTwK3qrUm9Hr5-1" target="of4eQQwGTwK3qrUm9Hr5-2">
          <mxGeometry relative="1" as="geometry" />
        </mxCell>
        <mxCell id="of4eQQwGTwK3qrUm9Hr5-100" style="edgeStyle=orthogonalEdgeStyle;rounded=0;orthogonalLoop=1;jettySize=auto;html=1;" edge="1" parent="1" source="of4eQQwGTwK3qrUm9Hr5-1" target="of4eQQwGTwK3qrUm9Hr5-86">
          <mxGeometry relative="1" as="geometry" />
        </mxCell>
        <mxCell id="of4eQQwGTwK3qrUm9Hr5-1" value="Start" style="ellipse;whiteSpace=wrap;html=1;" vertex="1" parent="1">
          <mxGeometry x="360" y="210" width="80" height="40" as="geometry" />
        </mxCell>
        <mxCell id="of4eQQwGTwK3qrUm9Hr5-7" style="edgeStyle=orthogonalEdgeStyle;rounded=0;orthogonalLoop=1;jettySize=auto;html=1;" edge="1" parent="1" source="of4eQQwGTwK3qrUm9Hr5-2" target="of4eQQwGTwK3qrUm9Hr5-6">
          <mxGeometry relative="1" as="geometry" />
        </mxCell>
        <mxCell id="of4eQQwGTwK3qrUm9Hr5-2" value="Rising edge on&lt;br&gt;i_CLK detected?" style="ellipse;whiteSpace=wrap;html=1;" vertex="1" parent="1">
          <mxGeometry x="337.5" y="270" width="125" height="60" as="geometry" />
        </mxCell>
        <mxCell id="of4eQQwGTwK3qrUm9Hr5-4" value="" style="curved=1;endArrow=classic;html=1;rounded=0;exitX=0.843;exitY=0.137;exitDx=0;exitDy=0;exitPerimeter=0;entryX=0.737;entryY=0.061;entryDx=0;entryDy=0;entryPerimeter=0;" edge="1" parent="1" source="of4eQQwGTwK3qrUm9Hr5-2" target="of4eQQwGTwK3qrUm9Hr5-2">
          <mxGeometry width="50" height="50" relative="1" as="geometry">
            <mxPoint x="430" y="305" as="sourcePoint" />
            <mxPoint x="480" y="255" as="targetPoint" />
            <Array as="points">
              <mxPoint x="455" y="265" />
              <mxPoint x="430" y="255" />
            </Array>
          </mxGeometry>
        </mxCell>
        <mxCell id="of4eQQwGTwK3qrUm9Hr5-5" value="Not&lt;br&gt;Detected" style="text;html=1;align=center;verticalAlign=middle;whiteSpace=wrap;rounded=0;" vertex="1" parent="1">
          <mxGeometry x="445" y="240" width="60" height="30" as="geometry" />
        </mxCell>
        <mxCell id="of4eQQwGTwK3qrUm9Hr5-13" style="edgeStyle=orthogonalEdgeStyle;rounded=0;orthogonalLoop=1;jettySize=auto;html=1;" edge="1" parent="1" source="of4eQQwGTwK3qrUm9Hr5-6" target="of4eQQwGTwK3qrUm9Hr5-12">
          <mxGeometry relative="1" as="geometry" />
        </mxCell>
        <mxCell id="of4eQQwGTwK3qrUm9Hr5-20" style="edgeStyle=orthogonalEdgeStyle;rounded=0;orthogonalLoop=1;jettySize=auto;html=1;entryX=1;entryY=0.5;entryDx=0;entryDy=0;" edge="1" parent="1" source="of4eQQwGTwK3qrUm9Hr5-6" target="of4eQQwGTwK3qrUm9Hr5-16">
          <mxGeometry relative="1" as="geometry">
            <Array as="points">
              <mxPoint x="400" y="470" />
            </Array>
          </mxGeometry>
        </mxCell>
        <mxCell id="of4eQQwGTwK3qrUm9Hr5-31" style="edgeStyle=orthogonalEdgeStyle;rounded=0;orthogonalLoop=1;jettySize=auto;html=1;entryX=1;entryY=0.5;entryDx=0;entryDy=0;" edge="1" parent="1" source="of4eQQwGTwK3qrUm9Hr5-6" target="of4eQQwGTwK3qrUm9Hr5-28">
          <mxGeometry relative="1" as="geometry" />
        </mxCell>
        <mxCell id="of4eQQwGTwK3qrUm9Hr5-37" style="edgeStyle=orthogonalEdgeStyle;rounded=0;orthogonalLoop=1;jettySize=auto;html=1;entryX=1;entryY=0.5;entryDx=0;entryDy=0;" edge="1" parent="1" source="of4eQQwGTwK3qrUm9Hr5-6" target="of4eQQwGTwK3qrUm9Hr5-33">
          <mxGeometry relative="1" as="geometry" />
        </mxCell>
        <mxCell id="of4eQQwGTwK3qrUm9Hr5-43" style="edgeStyle=orthogonalEdgeStyle;rounded=0;orthogonalLoop=1;jettySize=auto;html=1;entryX=1;entryY=0.5;entryDx=0;entryDy=0;" edge="1" parent="1" source="of4eQQwGTwK3qrUm9Hr5-6" target="of4eQQwGTwK3qrUm9Hr5-41">
          <mxGeometry relative="1" as="geometry" />
        </mxCell>
        <mxCell id="of4eQQwGTwK3qrUm9Hr5-49" style="edgeStyle=orthogonalEdgeStyle;rounded=0;orthogonalLoop=1;jettySize=auto;html=1;entryX=0;entryY=0.5;entryDx=0;entryDy=0;" edge="1" parent="1" source="of4eQQwGTwK3qrUm9Hr5-6" target="of4eQQwGTwK3qrUm9Hr5-47">
          <mxGeometry relative="1" as="geometry" />
        </mxCell>
        <mxCell id="of4eQQwGTwK3qrUm9Hr5-56" style="edgeStyle=orthogonalEdgeStyle;rounded=0;orthogonalLoop=1;jettySize=auto;html=1;entryX=0;entryY=0.5;entryDx=0;entryDy=0;" edge="1" parent="1" source="of4eQQwGTwK3qrUm9Hr5-6" target="of4eQQwGTwK3qrUm9Hr5-55">
          <mxGeometry relative="1" as="geometry" />
        </mxCell>
        <mxCell id="of4eQQwGTwK3qrUm9Hr5-68" style="edgeStyle=orthogonalEdgeStyle;rounded=0;orthogonalLoop=1;jettySize=auto;html=1;entryX=0;entryY=0.5;entryDx=0;entryDy=0;" edge="1" parent="1" source="of4eQQwGTwK3qrUm9Hr5-6" target="of4eQQwGTwK3qrUm9Hr5-61">
          <mxGeometry relative="1" as="geometry" />
        </mxCell>
        <mxCell id="of4eQQwGTwK3qrUm9Hr5-79" style="edgeStyle=orthogonalEdgeStyle;rounded=0;orthogonalLoop=1;jettySize=auto;html=1;" edge="1" parent="1" source="of4eQQwGTwK3qrUm9Hr5-6" target="of4eQQwGTwK3qrUm9Hr5-77">
          <mxGeometry relative="1" as="geometry" />
        </mxCell>
        <mxCell id="of4eQQwGTwK3qrUm9Hr5-82" style="edgeStyle=orthogonalEdgeStyle;rounded=0;orthogonalLoop=1;jettySize=auto;html=1;entryX=0;entryY=0.5;entryDx=0;entryDy=0;" edge="1" parent="1" source="of4eQQwGTwK3qrUm9Hr5-6" target="of4eQQwGTwK3qrUm9Hr5-70">
          <mxGeometry relative="1" as="geometry" />
        </mxCell>
        <mxCell id="of4eQQwGTwK3qrUm9Hr5-6" value="w_RUN = RUN?" style="ellipse;whiteSpace=wrap;html=1;" vertex="1" parent="1">
          <mxGeometry x="337.5" y="365" width="125" height="60" as="geometry" />
        </mxCell>
        <mxCell id="of4eQQwGTwK3qrUm9Hr5-9" value="" style="endArrow=none;html=1;rounded=0;" edge="1" parent="1">
          <mxGeometry width="50" height="50" relative="1" as="geometry">
            <mxPoint x="414" y="355" as="sourcePoint" />
            <mxPoint x="434" y="335" as="targetPoint" />
            <Array as="points">
              <mxPoint x="424" y="355" />
              <mxPoint x="424" y="335" />
            </Array>
          </mxGeometry>
        </mxCell>
        <mxCell id="of4eQQwGTwK3qrUm9Hr5-10" value="" style="endArrow=classic;html=1;rounded=0;" edge="1" parent="1">
          <mxGeometry width="50" height="50" relative="1" as="geometry">
            <mxPoint x="424" y="350" as="sourcePoint" />
            <mxPoint x="424" y="340" as="targetPoint" />
          </mxGeometry>
        </mxCell>
        <mxCell id="of4eQQwGTwK3qrUm9Hr5-11" value="Detected" style="text;html=1;align=center;verticalAlign=middle;whiteSpace=wrap;rounded=0;" vertex="1" parent="1">
          <mxGeometry x="425" y="330" width="60" height="30" as="geometry" />
        </mxCell>
        <mxCell id="of4eQQwGTwK3qrUm9Hr5-14" style="edgeStyle=orthogonalEdgeStyle;rounded=0;orthogonalLoop=1;jettySize=auto;html=1;" edge="1" parent="1" source="of4eQQwGTwK3qrUm9Hr5-12">
          <mxGeometry relative="1" as="geometry">
            <mxPoint x="260" y="300" as="targetPoint" />
            <Array as="points">
              <mxPoint x="260" y="300" />
            </Array>
          </mxGeometry>
        </mxCell>
        <mxCell id="of4eQQwGTwK3qrUm9Hr5-12" value="w_CMPLT &amp;lt;= &#39;0&#39;&lt;br&gt;v_Count := 0&lt;div&gt;o_SET &amp;lt;= &#39;0&#39;&lt;br&gt;state &amp;lt;= S1&lt;/div&gt;" style="rounded=1;whiteSpace=wrap;html=1;" vertex="1" parent="1">
          <mxGeometry x="210" y="362.5" width="100" height="65" as="geometry" />
        </mxCell>
        <mxCell id="of4eQQwGTwK3qrUm9Hr5-15" value="No" style="text;html=1;align=center;verticalAlign=middle;whiteSpace=wrap;rounded=0;" vertex="1" parent="1">
          <mxGeometry x="312.5" y="362.5" width="25" height="30" as="geometry" />
        </mxCell>
        <mxCell id="of4eQQwGTwK3qrUm9Hr5-26" style="edgeStyle=orthogonalEdgeStyle;rounded=0;orthogonalLoop=1;jettySize=auto;html=1;exitX=0.75;exitY=1;exitDx=0;exitDy=0;entryX=0.5;entryY=0;entryDx=0;entryDy=0;" edge="1" parent="1" source="of4eQQwGTwK3qrUm9Hr5-16" target="of4eQQwGTwK3qrUm9Hr5-17">
          <mxGeometry relative="1" as="geometry" />
        </mxCell>
        <mxCell id="of4eQQwGTwK3qrUm9Hr5-108" style="edgeStyle=orthogonalEdgeStyle;rounded=0;orthogonalLoop=1;jettySize=auto;html=1;" edge="1" parent="1" source="of4eQQwGTwK3qrUm9Hr5-16">
          <mxGeometry relative="1" as="geometry">
            <mxPoint x="140" y="470" as="targetPoint" />
          </mxGeometry>
        </mxCell>
        <mxCell id="of4eQQwGTwK3qrUm9Hr5-16" value="o_DATA &amp;lt;= r_A_REG" style="rounded=1;whiteSpace=wrap;html=1;" vertex="1" parent="1">
          <mxGeometry x="170" y="460" width="190" height="20" as="geometry" />
        </mxCell>
        <mxCell id="of4eQQwGTwK3qrUm9Hr5-25" style="edgeStyle=orthogonalEdgeStyle;rounded=0;orthogonalLoop=1;jettySize=auto;html=1;" edge="1" parent="1" source="of4eQQwGTwK3qrUm9Hr5-17" target="of4eQQwGTwK3qrUm9Hr5-23">
          <mxGeometry relative="1" as="geometry" />
        </mxCell>
        <mxCell id="of4eQQwGTwK3qrUm9Hr5-17" value="wait 2 clocks" style="rounded=1;whiteSpace=wrap;html=1;" vertex="1" parent="1">
          <mxGeometry x="280" y="500" width="80" height="20" as="geometry" />
        </mxCell>
        <mxCell id="of4eQQwGTwK3qrUm9Hr5-19" value="When state =&amp;nbsp; S1" style="text;html=1;align=center;verticalAlign=middle;whiteSpace=wrap;rounded=0;" vertex="1" parent="1">
          <mxGeometry x="170" y="445" width="105" height="15" as="geometry" />
        </mxCell>
        <mxCell id="of4eQQwGTwK3qrUm9Hr5-109" style="edgeStyle=orthogonalEdgeStyle;rounded=0;orthogonalLoop=1;jettySize=auto;html=1;" edge="1" parent="1" source="of4eQQwGTwK3qrUm9Hr5-23">
          <mxGeometry relative="1" as="geometry">
            <mxPoint x="140" y="510" as="targetPoint" />
          </mxGeometry>
        </mxCell>
        <mxCell id="of4eQQwGTwK3qrUm9Hr5-23" value="state &amp;lt;= S2" style="rounded=1;whiteSpace=wrap;html=1;" vertex="1" parent="1">
          <mxGeometry x="170" y="500" width="80" height="20" as="geometry" />
        </mxCell>
        <mxCell id="of4eQQwGTwK3qrUm9Hr5-110" style="edgeStyle=orthogonalEdgeStyle;rounded=0;orthogonalLoop=1;jettySize=auto;html=1;" edge="1" parent="1" source="of4eQQwGTwK3qrUm9Hr5-28">
          <mxGeometry relative="1" as="geometry">
            <mxPoint x="140" y="560" as="targetPoint" />
          </mxGeometry>
        </mxCell>
        <mxCell id="of4eQQwGTwK3qrUm9Hr5-28" value="o_SET &amp;lt;= SET&lt;br&gt;state &amp;lt;= S3" style="rounded=1;whiteSpace=wrap;html=1;" vertex="1" parent="1">
          <mxGeometry x="170" y="545" width="190" height="30" as="geometry" />
        </mxCell>
        <mxCell id="of4eQQwGTwK3qrUm9Hr5-29" value="When state = S2" style="text;html=1;align=center;verticalAlign=middle;whiteSpace=wrap;rounded=0;" vertex="1" parent="1">
          <mxGeometry x="170" y="530" width="105" height="15" as="geometry" />
        </mxCell>
        <mxCell id="of4eQQwGTwK3qrUm9Hr5-36" style="edgeStyle=orthogonalEdgeStyle;rounded=0;orthogonalLoop=1;jettySize=auto;html=1;" edge="1" parent="1" source="of4eQQwGTwK3qrUm9Hr5-33" target="of4eQQwGTwK3qrUm9Hr5-35">
          <mxGeometry relative="1" as="geometry" />
        </mxCell>
        <mxCell id="of4eQQwGTwK3qrUm9Hr5-33" value="wait 10 clocks" style="rounded=1;whiteSpace=wrap;html=1;" vertex="1" parent="1">
          <mxGeometry x="275" y="595" width="85" height="30" as="geometry" />
        </mxCell>
        <mxCell id="of4eQQwGTwK3qrUm9Hr5-111" style="edgeStyle=orthogonalEdgeStyle;rounded=0;orthogonalLoop=1;jettySize=auto;html=1;" edge="1" parent="1" source="of4eQQwGTwK3qrUm9Hr5-35">
          <mxGeometry relative="1" as="geometry">
            <mxPoint x="140" y="610" as="targetPoint" />
          </mxGeometry>
        </mxCell>
        <mxCell id="of4eQQwGTwK3qrUm9Hr5-35" value="o_SET &amp;lt;= &#39;0&#39;&lt;br&gt;state &amp;lt;= S4" style="rounded=1;whiteSpace=wrap;html=1;" vertex="1" parent="1">
          <mxGeometry x="170" y="595" width="85" height="30" as="geometry" />
        </mxCell>
        <mxCell id="of4eQQwGTwK3qrUm9Hr5-39" value="When state = S3" style="text;html=1;align=center;verticalAlign=middle;whiteSpace=wrap;rounded=0;" vertex="1" parent="1">
          <mxGeometry x="170" y="580" width="105" height="15" as="geometry" />
        </mxCell>
        <mxCell id="of4eQQwGTwK3qrUm9Hr5-44" style="edgeStyle=orthogonalEdgeStyle;rounded=0;orthogonalLoop=1;jettySize=auto;html=1;" edge="1" parent="1" source="of4eQQwGTwK3qrUm9Hr5-41" target="of4eQQwGTwK3qrUm9Hr5-42">
          <mxGeometry relative="1" as="geometry" />
        </mxCell>
        <mxCell id="of4eQQwGTwK3qrUm9Hr5-41" value="wait 10 clocks" style="rounded=1;whiteSpace=wrap;html=1;" vertex="1" parent="1">
          <mxGeometry x="275" y="650" width="85" height="30" as="geometry" />
        </mxCell>
        <mxCell id="of4eQQwGTwK3qrUm9Hr5-112" style="edgeStyle=orthogonalEdgeStyle;rounded=0;orthogonalLoop=1;jettySize=auto;html=1;" edge="1" parent="1" source="of4eQQwGTwK3qrUm9Hr5-42">
          <mxGeometry relative="1" as="geometry">
            <mxPoint x="140" y="665" as="targetPoint" />
          </mxGeometry>
        </mxCell>
        <mxCell id="of4eQQwGTwK3qrUm9Hr5-42" value="state &amp;lt;= S5" style="rounded=1;whiteSpace=wrap;html=1;" vertex="1" parent="1">
          <mxGeometry x="170" y="650" width="80" height="30" as="geometry" />
        </mxCell>
        <mxCell id="of4eQQwGTwK3qrUm9Hr5-46" value="When state = S4" style="text;html=1;align=center;verticalAlign=middle;whiteSpace=wrap;rounded=0;" vertex="1" parent="1">
          <mxGeometry x="165" y="635" width="105" height="15" as="geometry" />
        </mxCell>
        <mxCell id="of4eQQwGTwK3qrUm9Hr5-54" style="edgeStyle=orthogonalEdgeStyle;rounded=0;orthogonalLoop=1;jettySize=auto;html=1;exitX=0.25;exitY=1;exitDx=0;exitDy=0;entryX=0.5;entryY=0;entryDx=0;entryDy=0;" edge="1" parent="1" source="of4eQQwGTwK3qrUm9Hr5-47" target="of4eQQwGTwK3qrUm9Hr5-50">
          <mxGeometry relative="1" as="geometry" />
        </mxCell>
        <mxCell id="of4eQQwGTwK3qrUm9Hr5-113" style="edgeStyle=orthogonalEdgeStyle;rounded=0;orthogonalLoop=1;jettySize=auto;html=1;" edge="1" parent="1" source="of4eQQwGTwK3qrUm9Hr5-47">
          <mxGeometry relative="1" as="geometry">
            <mxPoint x="660.0000000000002" y="470.0000000000001" as="targetPoint" />
          </mxGeometry>
        </mxCell>
        <mxCell id="of4eQQwGTwK3qrUm9Hr5-47" value="o_DATA &amp;lt;= r_B_REG" style="rounded=1;whiteSpace=wrap;html=1;" vertex="1" parent="1">
          <mxGeometry x="440" y="460" width="190" height="20" as="geometry" />
        </mxCell>
        <mxCell id="of4eQQwGTwK3qrUm9Hr5-48" value="When state =&amp;nbsp; S5" style="text;html=1;align=center;verticalAlign=middle;whiteSpace=wrap;rounded=0;" vertex="1" parent="1">
          <mxGeometry x="440" y="445" width="105" height="15" as="geometry" />
        </mxCell>
        <mxCell id="of4eQQwGTwK3qrUm9Hr5-53" style="edgeStyle=orthogonalEdgeStyle;rounded=0;orthogonalLoop=1;jettySize=auto;html=1;" edge="1" parent="1" source="of4eQQwGTwK3qrUm9Hr5-50" target="of4eQQwGTwK3qrUm9Hr5-51">
          <mxGeometry relative="1" as="geometry" />
        </mxCell>
        <mxCell id="of4eQQwGTwK3qrUm9Hr5-50" value="wait 2 clocks" style="rounded=1;whiteSpace=wrap;html=1;" vertex="1" parent="1">
          <mxGeometry x="440" y="500" width="80" height="20" as="geometry" />
        </mxCell>
        <mxCell id="of4eQQwGTwK3qrUm9Hr5-114" style="edgeStyle=orthogonalEdgeStyle;rounded=0;orthogonalLoop=1;jettySize=auto;html=1;" edge="1" parent="1" source="of4eQQwGTwK3qrUm9Hr5-51">
          <mxGeometry relative="1" as="geometry">
            <mxPoint x="660" y="510" as="targetPoint" />
          </mxGeometry>
        </mxCell>
        <mxCell id="of4eQQwGTwK3qrUm9Hr5-51" value="state &amp;lt;= S6" style="rounded=1;whiteSpace=wrap;html=1;" vertex="1" parent="1">
          <mxGeometry x="550" y="500" width="80" height="20" as="geometry" />
        </mxCell>
        <mxCell id="of4eQQwGTwK3qrUm9Hr5-115" style="edgeStyle=orthogonalEdgeStyle;rounded=0;orthogonalLoop=1;jettySize=auto;html=1;" edge="1" parent="1" source="of4eQQwGTwK3qrUm9Hr5-55">
          <mxGeometry relative="1" as="geometry">
            <mxPoint x="660" y="560" as="targetPoint" />
          </mxGeometry>
        </mxCell>
        <mxCell id="of4eQQwGTwK3qrUm9Hr5-55" value="o_SET &amp;lt;= SET&lt;br&gt;state &amp;lt;= S7" style="rounded=1;whiteSpace=wrap;html=1;" vertex="1" parent="1">
          <mxGeometry x="440" y="545" width="190" height="30" as="geometry" />
        </mxCell>
        <mxCell id="of4eQQwGTwK3qrUm9Hr5-66" style="edgeStyle=orthogonalEdgeStyle;rounded=0;orthogonalLoop=1;jettySize=auto;html=1;entryX=0;entryY=0.5;entryDx=0;entryDy=0;" edge="1" parent="1" source="of4eQQwGTwK3qrUm9Hr5-61" target="of4eQQwGTwK3qrUm9Hr5-64">
          <mxGeometry relative="1" as="geometry" />
        </mxCell>
        <mxCell id="of4eQQwGTwK3qrUm9Hr5-61" value="wait 10 clocks" style="rounded=1;whiteSpace=wrap;html=1;" vertex="1" parent="1">
          <mxGeometry x="440" y="595" width="85" height="30" as="geometry" />
        </mxCell>
        <mxCell id="of4eQQwGTwK3qrUm9Hr5-62" value="When state = S6" style="text;html=1;align=center;verticalAlign=middle;whiteSpace=wrap;rounded=0;" vertex="1" parent="1">
          <mxGeometry x="445" y="530" width="105" height="15" as="geometry" />
        </mxCell>
        <mxCell id="of4eQQwGTwK3qrUm9Hr5-63" value="When state = S7" style="text;html=1;align=center;verticalAlign=middle;whiteSpace=wrap;rounded=0;" vertex="1" parent="1">
          <mxGeometry x="440" y="580" width="105" height="15" as="geometry" />
        </mxCell>
        <mxCell id="of4eQQwGTwK3qrUm9Hr5-116" style="edgeStyle=orthogonalEdgeStyle;rounded=0;orthogonalLoop=1;jettySize=auto;html=1;" edge="1" parent="1" source="of4eQQwGTwK3qrUm9Hr5-64">
          <mxGeometry relative="1" as="geometry">
            <mxPoint x="660" y="610" as="targetPoint" />
          </mxGeometry>
        </mxCell>
        <mxCell id="of4eQQwGTwK3qrUm9Hr5-64" value="o_SET &amp;lt;= &#39;0&#39;&lt;br&gt;state &amp;lt;= S8" style="rounded=1;whiteSpace=wrap;html=1;" vertex="1" parent="1">
          <mxGeometry x="545" y="595" width="85" height="30" as="geometry" />
        </mxCell>
        <mxCell id="of4eQQwGTwK3qrUm9Hr5-83" style="edgeStyle=orthogonalEdgeStyle;rounded=0;orthogonalLoop=1;jettySize=auto;html=1;" edge="1" parent="1" source="of4eQQwGTwK3qrUm9Hr5-70" target="of4eQQwGTwK3qrUm9Hr5-71">
          <mxGeometry relative="1" as="geometry" />
        </mxCell>
        <mxCell id="of4eQQwGTwK3qrUm9Hr5-70" value="wait 10 clocks" style="rounded=1;whiteSpace=wrap;html=1;" vertex="1" parent="1">
          <mxGeometry x="440" y="650" width="60" height="30" as="geometry" />
        </mxCell>
        <mxCell id="of4eQQwGTwK3qrUm9Hr5-81" style="edgeStyle=orthogonalEdgeStyle;rounded=0;orthogonalLoop=1;jettySize=auto;html=1;exitX=0.75;exitY=0;exitDx=0;exitDy=0;entryX=1;entryY=0.5;entryDx=0;entryDy=0;" edge="1" parent="1" source="of4eQQwGTwK3qrUm9Hr5-71" target="of4eQQwGTwK3qrUm9Hr5-2">
          <mxGeometry relative="1" as="geometry">
            <mxPoint x="660" y="610" as="targetPoint" />
            <Array as="points">
              <mxPoint x="660" y="650" />
              <mxPoint x="660" y="300" />
            </Array>
          </mxGeometry>
        </mxCell>
        <mxCell id="of4eQQwGTwK3qrUm9Hr5-71" value="state &amp;lt;= SEQ_CMPLT" style="rounded=1;whiteSpace=wrap;html=1;" vertex="1" parent="1">
          <mxGeometry x="540" y="650" width="140" height="30" as="geometry" />
        </mxCell>
        <mxCell id="of4eQQwGTwK3qrUm9Hr5-76" value="When state = S8" style="text;html=1;align=center;verticalAlign=middle;whiteSpace=wrap;rounded=0;" vertex="1" parent="1">
          <mxGeometry x="440" y="635" width="105" height="15" as="geometry" />
        </mxCell>
        <mxCell id="of4eQQwGTwK3qrUm9Hr5-80" style="edgeStyle=orthogonalEdgeStyle;rounded=0;orthogonalLoop=1;jettySize=auto;html=1;entryX=0;entryY=0.5;entryDx=0;entryDy=0;" edge="1" parent="1" source="of4eQQwGTwK3qrUm9Hr5-77" target="of4eQQwGTwK3qrUm9Hr5-2">
          <mxGeometry relative="1" as="geometry">
            <mxPoint x="140" y="665" as="targetPoint" />
            <Array as="points">
              <mxPoint x="140" y="715" />
              <mxPoint x="140" y="300" />
            </Array>
          </mxGeometry>
        </mxCell>
        <mxCell id="of4eQQwGTwK3qrUm9Hr5-77" value="w_CMPLT &amp;lt;= CMPLT" style="rounded=1;whiteSpace=wrap;html=1;" vertex="1" parent="1">
          <mxGeometry x="330" y="700" width="140" height="30" as="geometry" />
        </mxCell>
        <mxCell id="of4eQQwGTwK3qrUm9Hr5-78" value="When state = SEQ_CMPLT" style="text;html=1;align=center;verticalAlign=middle;whiteSpace=wrap;rounded=0;" vertex="1" parent="1">
          <mxGeometry x="318.75" y="730" width="162.5" height="15" as="geometry" />
        </mxCell>
        <mxCell id="of4eQQwGTwK3qrUm9Hr5-84" value="Yes" style="text;html=1;align=center;verticalAlign=middle;whiteSpace=wrap;rounded=0;" vertex="1" parent="1">
          <mxGeometry x="370" y="435" width="25" height="22.5" as="geometry" />
        </mxCell>
        <mxCell id="of4eQQwGTwK3qrUm9Hr5-90" style="edgeStyle=orthogonalEdgeStyle;rounded=0;orthogonalLoop=1;jettySize=auto;html=1;" edge="1" parent="1" source="of4eQQwGTwK3qrUm9Hr5-86" target="of4eQQwGTwK3qrUm9Hr5-87">
          <mxGeometry relative="1" as="geometry" />
        </mxCell>
        <mxCell id="of4eQQwGTwK3qrUm9Hr5-102" style="edgeStyle=orthogonalEdgeStyle;rounded=0;orthogonalLoop=1;jettySize=auto;html=1;" edge="1" parent="1" source="of4eQQwGTwK3qrUm9Hr5-86" target="of4eQQwGTwK3qrUm9Hr5-99">
          <mxGeometry relative="1" as="geometry" />
        </mxCell>
        <mxCell id="of4eQQwGTwK3qrUm9Hr5-86" value="w_CMPLT = CMPLT&lt;br&gt;or&lt;div&gt;i_RESET = &#39;1&#39;?&lt;/div&gt;" style="ellipse;whiteSpace=wrap;html=1;" vertex="1" parent="1">
          <mxGeometry x="330" y="115" width="140" height="75" as="geometry" />
        </mxCell>
        <mxCell id="of4eQQwGTwK3qrUm9Hr5-92" style="edgeStyle=orthogonalEdgeStyle;rounded=0;orthogonalLoop=1;jettySize=auto;html=1;" edge="1" parent="1" source="of4eQQwGTwK3qrUm9Hr5-87" target="of4eQQwGTwK3qrUm9Hr5-91">
          <mxGeometry relative="1" as="geometry" />
        </mxCell>
        <mxCell id="of4eQQwGTwK3qrUm9Hr5-87" value="Falling edge on&lt;br&gt;i_SET detected?" style="ellipse;whiteSpace=wrap;html=1;" vertex="1" parent="1">
          <mxGeometry x="330" y="40" width="140" height="50" as="geometry" />
        </mxCell>
        <mxCell id="of4eQQwGTwK3qrUm9Hr5-89" value="No" style="text;html=1;align=center;verticalAlign=middle;whiteSpace=wrap;rounded=0;" vertex="1" parent="1">
          <mxGeometry x="405" y="95" width="25" height="20" as="geometry" />
        </mxCell>
        <mxCell id="of4eQQwGTwK3qrUm9Hr5-98" style="edgeStyle=orthogonalEdgeStyle;rounded=0;orthogonalLoop=1;jettySize=auto;html=1;entryX=1;entryY=0.5;entryDx=0;entryDy=0;" edge="1" parent="1" source="of4eQQwGTwK3qrUm9Hr5-91" target="of4eQQwGTwK3qrUm9Hr5-86">
          <mxGeometry relative="1" as="geometry">
            <Array as="points">
              <mxPoint x="580" y="153" />
            </Array>
          </mxGeometry>
        </mxCell>
        <mxCell id="of4eQQwGTwK3qrUm9Hr5-91" value="w_RUN &amp;lt;= RUN&lt;br&gt;r_A_REG &amp;lt;= i_DATA_A&lt;div&gt;r_B_REG &amp;lt;= i_DATA_B&lt;/div&gt;" style="rounded=1;whiteSpace=wrap;html=1;" vertex="1" parent="1">
          <mxGeometry x="512.5" y="35" width="150" height="60" as="geometry" />
        </mxCell>
        <mxCell id="of4eQQwGTwK3qrUm9Hr5-94" value="" style="endArrow=none;html=1;rounded=0;" edge="1" parent="1">
          <mxGeometry width="50" height="50" relative="1" as="geometry">
            <mxPoint x="475" y="37" as="sourcePoint" />
            <mxPoint x="495" y="57" as="targetPoint" />
            <Array as="points">
              <mxPoint x="485" y="37" />
              <mxPoint x="485" y="57" />
            </Array>
          </mxGeometry>
        </mxCell>
        <mxCell id="of4eQQwGTwK3qrUm9Hr5-95" value="" style="endArrow=classic;html=1;rounded=0;" edge="1" parent="1">
          <mxGeometry width="50" height="50" relative="1" as="geometry">
            <mxPoint x="485" y="49.5" as="sourcePoint" />
            <mxPoint x="485" y="52" as="targetPoint" />
          </mxGeometry>
        </mxCell>
        <mxCell id="of4eQQwGTwK3qrUm9Hr5-96" value="Detected" style="text;html=1;align=center;verticalAlign=middle;whiteSpace=wrap;rounded=0;" vertex="1" parent="1">
          <mxGeometry x="452.5" y="10" width="60" height="30" as="geometry" />
        </mxCell>
        <mxCell id="of4eQQwGTwK3qrUm9Hr5-99" value="w_RUN &amp;lt;= &#39;0&#39;&lt;br&gt;r_A_REG &amp;lt;= x&quot;0000&quot;&lt;div&gt;r_B_REG &amp;lt;= x&quot;0000&quot;&lt;/div&gt;" style="rounded=1;whiteSpace=wrap;html=1;" vertex="1" parent="1">
          <mxGeometry x="150" y="122.5" width="150" height="60" as="geometry" />
        </mxCell>
        <mxCell id="of4eQQwGTwK3qrUm9Hr5-101" value="Yes" style="text;html=1;align=center;verticalAlign=middle;whiteSpace=wrap;rounded=0;" vertex="1" parent="1">
          <mxGeometry x="305" y="122.5" width="25" height="20" as="geometry" />
        </mxCell>
        <mxCell id="of4eQQwGTwK3qrUm9Hr5-105" value="" style="curved=1;endArrow=classic;html=1;rounded=0;exitX=0;exitY=0.5;exitDx=0;exitDy=0;entryX=0;entryY=0;entryDx=0;entryDy=0;" edge="1" parent="1" source="of4eQQwGTwK3qrUm9Hr5-87" target="of4eQQwGTwK3qrUm9Hr5-86">
          <mxGeometry width="50" height="50" relative="1" as="geometry">
            <mxPoint x="370" y="145" as="sourcePoint" />
            <mxPoint x="420" y="95" as="targetPoint" />
            <Array as="points">
              <mxPoint x="300" y="65" />
              <mxPoint x="305" y="95" />
            </Array>
          </mxGeometry>
        </mxCell>
        <mxCell id="of4eQQwGTwK3qrUm9Hr5-106" value="Not&lt;br&gt;Detected" style="text;html=1;align=center;verticalAlign=middle;whiteSpace=wrap;rounded=0;" vertex="1" parent="1">
          <mxGeometry x="245" y="65" width="60" height="30" as="geometry" />
        </mxCell>
        <mxCell id="of4eQQwGTwK3qrUm9Hr5-107" value="" style="curved=1;endArrow=classic;html=1;rounded=0;exitX=0.5;exitY=1;exitDx=0;exitDy=0;entryX=0;entryY=1;entryDx=0;entryDy=0;" edge="1" parent="1" source="of4eQQwGTwK3qrUm9Hr5-99" target="of4eQQwGTwK3qrUm9Hr5-86">
          <mxGeometry width="50" height="50" relative="1" as="geometry">
            <mxPoint x="375" y="200" as="sourcePoint" />
            <mxPoint x="425" y="150" as="targetPoint" />
            <Array as="points">
              <mxPoint x="230" y="235" />
              <mxPoint x="325" y="205" />
            </Array>
          </mxGeometry>
        </mxCell>
      </root>
    </mxGraphModel>
  </diagram>
</mxfile>
